# xmcd CD database file
#
# Track frame offsets:
#	150
#	17036
#	33907
#	46177
#	67158
#	87307
#	103815
#	122099
#	150884
#	167880
#	185691
#	203702
#
# Disc length: 2878 seconds
#
# Revision: 4
# Processed by: cddbd v1.5.2PL0 Copyright (c) Steve Scherf et al.
# Submitted via: CDex 1.51
#
DISCID=9b0b3c0c
DTITLE=Various Artist - Crucial Harmonica Blues
DYEAR=2003
DGENRE=Blues
TTITLE0=Charlie Musselwhite - Make My Getaway
TTITLE1=Big Walter Horton and Carey Bell - Have Mercy
TTITLE2=Billy Boy Arnold - Shake The Boogie
TTITLE3=Sonny Terry - Sonny's Whoopin The Doop
TTITLE4=Junior Wells and Billy Branch - Broke and Hungry
TTITLE5=Delbert McClintom - Thank You Baby
TTITLE6=Cephas and Wiggins - Burn Your Bridges
TTITLE7=Little Charlie and The Nightcats - Coastin' Hank
TTITLE8=James Cotton - Superharp
TTITLE9=Carey Bell - Lonesome Stranger
TTITLE10=Sugar Blue - One More Mile To Go 
TTITLE11=William Clarke - Blowin' Like Hell
EXTD=YEAR: 2003
EXTT0=
EXTT1=
EXTT2=
EXTT3=
EXTT4=
EXTT5=
EXTT6=
EXTT7=
EXTT8=
EXTT9=
EXTT10=
EXTT11=
PLAYORDER=
